<svg xmlns="http://www.w3.org/2000/svg" xmlns:xlink="http://www.w3.org/1999/xlink" fill="none" version="1.1" width="700" height="300" viewBox="0 0 700 300"><defs><clipPath id="master_svg0_24_08"><rect x="0" y="0" width="700" height="300" rx="0"/></clipPath><filter id="master_svg1_24_12" filterUnits="objectBoundingBox" color-interpolation-filters="sRGB" x="-0.033003300330033" y="-0.2807017543859649" width="1.066006600660066" height="1.7017543859649122"><feFlood flood-opacity="0" result="BackgroundImageFix"/><feColorMatrix in="SourceAlpha" type="matrix" values="0 0 0 0 0 0 0 0 0 0 0 0 0 0 0 0 0 0 127 0"/><feOffset dy="4" dx="0"/><feGaussianBlur stdDeviation="5"/><feColorMatrix type="matrix" values="0 0 0 0 0 0 0 0 0 0 0 0 0 0 0 0 0 0 0.30000001192092896 0"/><feBlend mode="normal" in2="BackgroundImageFix" result="effect1_dropShadow"/><feBlend mode="normal" in="SourceGraphic" in2="effect1_dropShadow" result="shape"/></filter></defs><g clip-path="url(#master_svg0_24_08)"><rect x="0" y="0" width="700" height="300" rx="0" fill="#FFFFFF" fill-opacity="1"/><g filter="url(#master_svg1_24_12)"><path d="M56.0240002,166.807999L52.9040003,166.71200199999998L51.848,166.807999Q51.8000002,166.759998,51.6799998,166.71200199999998Q51.5599999,166.66400099999998,51.3200002,166.424Q51.0799999,166.183998,50.9360001,165.89600000000002L50.9360001,164.023998L51.1280003,163.736L51.0320001,162.68Q51.368,160.136002,51.4640002,157.44799799999998Q51.5599999,154.760002,51.7519999,152.216L51.7519999,145.544001L51.4640002,141.17600099999999Q51.5599999,136.136,51.6799998,134.84Q51.8000002,133.54399899999999,53.5279999,133.54399899999999Q54.152,133.54399899999999,54.4400001,134.45600100000001Q54.4400001,135.368,54.2480001,136.136Q54.2480001,141.07999999999998,54.152,142.52L54.4400001,145.544001L54.4400001,152.216Q54.2480001,155.144001,54.1280003,158.144001Q54.0079999,161.144001,53.6719999,164.023998Q54.4879999,164.023998,56.7919998,163.736Q57.512,163.784,59.384,163.784Q62.168,163.784,63.464000999999996,163.832001L66.344,163.736L71.48,163.832001L73.592001,163.736Q74.072001,163.880001,74.55199999999999,164.695999L74.55199999999999,165.416Q74.408001,165.99200100000002,73.639999,166.375999Q68.936001,166.71200199999998,64.328001,166.71200199999998L60.104,166.66400099999998Q57.416,166.66400099999998,56.0240002,166.807999ZM95.288002,163.928001Q96.82399699999999,163.784,97.639999,163.495998Q103.83200099999999,161.528,107.096001,154.568001Q108.008003,152.936001,108.008003,149.384001Q108.008003,143.288,102.536003,137.383999Q101.335999,136.712,99.968002,136.544001Q98.599998,136.375999,97.208,136.232Q96.152,136.327999,94.52000000000001,136.327999Q94.087997,136.087999,93.464001,136.087999L91.83200099999999,136.136Q90.248001,136.472,88.73599999999999,137.024Q87.22399899999999,137.576,86.119999,139.063999Q83.52799999999999,141.511999,82.279999,144.799999Q81.03200100000001,148.087999,81.03200100000001,151.208Q81.70399900000001,153.559999,82.688,155.816002Q83.672001,158.071999,85.352001,159.848Q87.512001,161.911999,90.200001,162.919998Q92.888,163.928001,95.288002,163.928001ZM95.239998,166.66400099999998Q88.37599900000001,166.66400099999998,82.760002,161.048Q78.488001,155.048,78.488001,150.247999Q78.488001,141.992001,85.83200099999999,135.511999Q89.096001,133.352001,93.368,133.352001Q94.13600199999999,133.352001,96.968002,133.639999L98.120003,133.54399899999999Q99.992001,133.784,101.912003,134.192001Q103.83200099999999,134.599998,105.22399899999999,136.327999Q110.647999,141.608,110.647999,150.007999Q110.647999,156.439999,105.12799799999999,162.05599999999998Q99.992001,166.66400099999998,95.239998,166.66400099999998ZM136.66400099999998,151.54399899999999L136.760002,151.448Q135.464005,148.184,133.832001,145.112Q132.199997,142.039999,130.903999,138.775999Q129.464005,142.039999,127.783997,145.063999Q126.104004,148.087999,124.664001,151.208L132.68,151.352001Q133.592003,151.54399899999999,136.66400099999998,151.54399899999999ZM116.360001,166.807999L115.975998,166.807999L115.783997,166.66400099999998Q115.160004,166.375999,114.968002,165.416Q119.288002,156.152,123.008003,148.712Q126.727997,141.271999,130.04000100000002,133.688Q130.520004,133.400002,131.239998,133.400002Q132.05599999999998,133.784,132.199997,134.360001Q135.32,141.751999,138.655998,149.216Q141.992004,156.68,145.496002,165.560001Q145.35200500000002,166.183998,144.536003,166.52L143.767998,166.52Q143.33599900000002,166.375999,142.856003,165.655998Q142.760002,165.512001,137.767998,154.088001L132.968002,154.183998L132.391998,153.992001L124.664001,153.992001L123.655998,154.183998L117.223999,166.52Q116.935997,166.71200199999998,116.720001,166.736Q116.503998,166.759998,116.360001,166.807999ZM157.88,164.119999Q159.704,163.832001,163.01601,163.832001L164.216,163.928001Q166.18401,163.928001,167.98401,163.352001Q169.784,162.776001,171.416,161.959999Q173.048,161.144001,173.816,159.751999Q174.58401,158.360001,175.25601,157.015999Q175.784,155.33599900000002,176.336,153.68Q176.888,152.024,177.12801,150.392L177.17601,146.119999Q176.60001,144.10399999999998,175.304,142.256001Q174.00799999999998,140.407999,172.71201000000002,138.68Q170.07201,137.048,167.12,136.567999Q164.16800999999998,136.087999,161.192,136.039999L155.09601,136.472Q155.09601,137.048,154.832,137.576Q154.56801000000002,138.10399999999998,154.56801000000002,138.584Q154.56801000000002,144.535999,154.424,148.615999L154.47201,153.703999L154.08801,164.023998L157.88,164.119999ZM157.54401000000001,166.807999L156.15201000000002,166.807999Q155.24000999999998,166.568001,154.424,166.568001Q153.99200000000002,166.568001,153.608,166.61600099999998Q153.22401000000002,166.66400099999998,152.88801,166.66400099999998Q152.26400999999998,166.66400099999998,151.856,166.375999Q151.44801,166.088001,151.44801,164.84Q151.73601,158.84,151.832,148.712L151.73601,146.552L151.928,144.535999Q151.928,138.584,152.12,136.567999L151.832,134.792L151.97601,134.599998Q152.36,134.023998,152.744,133.880001Q153.8,133.880001,154.47201,133.975998L155.672,133.784L157.59199999999998,133.784Q159.89600000000002,133.304001,163.44801,133.304001Q167.86401,133.975998,169.784,134.45600100000001Q173,135.128,175.40001,137.576Q176.696,139.639999,178.136,141.632Q179.576,143.624001,179.86401,146.119999L179.81601,150.392Q178.76001,157.784,174.92001,162.776001Q170.312,166.61600099999998,163.11201,166.61600099999998L159.94401,166.52Q158.40800000000002,166.759998,158.144,166.759998Q157.88,166.759998,157.54401000000001,166.807999ZM224.26401,157.16L223.30402,156.584Q220.664,153.992001,217.88,151.688Q215,149.431999,211.92801,147.416Q210.00801,146.983999,210.00801,145.448Q210.00801,145.016001,210.32001,144.656Q210.632,144.296,210.87201,144.199999L211.832,144.199999Q218.79201,148.712,223.496,152.984001Q223.97601,153.559999,224.72,154.112Q225.464,154.66400099999998,225.80002,155.38399900000002L225.80002,156.10399999999998Q225.70401,156.391998,225.41602,156.703999Q225.12801,157.015999,224.26401,157.16ZM204.53601,170.360001Q203.86401,170.167999,203.576,169.400002L203.52802,165.848L203.576,144.632Q200.936,147.368,198.104,150.200001Q194.16801,154.183998,190.71201,155.672001Q189.17601,156.200001,186.72801,157.400002L185.72002,156.872002Q185.43201,156.344002,185.43201,155.672001L185.52802,155.528Q185.81601,154.711998,186.72801,154.327999Q192.29601,152.647999,198.05602,146.552Q202.18401,142.567999,205.16,136.664L204.72801,136.615999Q200.45601,137.191999,196.18401,137.695999Q191.912,138.199999,187.78401,139.063999L186.72801,138.487999Q186.39201,138.056,186.39201,137.288Q186.77602,136.472,187.35201,136.375999Q194.84001,135.17600099999999,223.92801,131.6240005Q224.69601,132.007999,224.84001,132.584L224.84001,133.256001Q224.74402,133.591999,224.50401,133.880001Q223.78401,134.408001,216.34401,135.17600099999999Q212.50401,135.656,208.71201,136.279999Q208.08801,137.143999,207.464,138.296Q206.744,139.639999,206.02402,140.6Q206.45601,140.935999,206.45601,141.416L206.45601,142.472L206.26401,142.952L206.26401,165.799999Q206.16801,166.424,206.16801,167.096001L206.216,168.200001Q206.216,169.256001,205.73601,170.023998Q205.25601,170.360001,204.53601,170.360001ZM271.25601,170.264L270.48801000000003,170.264Q270.05602,170.119999,269.86401,169.784Q269.67201,169.44799799999998,269.48001,169.208L269,166.52Q268.52,166.52,252.48801,167.528Q244.664,168.05599999999998,236.98401,169.208L235.496,168.391998L235.11201,167.240002Q235.97601,164.264,236.62401,161.33599900000002Q237.272,158.408001,238.18401,155.528Q238.664,155.288002,239.43201,155.288002Q240.05602,155.48,240.34401,156.200001L240.34401,157.639999Q239.72,159.848,239.216,162.032001Q238.71201,164.216,238.18401,166.327999L238.47202,166.327999Q243.51201,165.368,252.776,164.888L252.96802,162.728001Q252.96802,153.89600000000002,252.87201,148.76Q249.992,149.191999,247.16,149.431999Q243.89601,149.671999,240.77602,150.056L239.72,149.528Q239.19202,146.360001,238.44801,143.216Q237.70401,140.072001,237.464,136.808001Q237.8,136.087999,238.37601,135.89600000000002L239.14401,135.89600000000002L240.05602,136.664Q240.24802,139.4,240.94402,141.992001Q241.64001,144.584,241.78401,147.223999L242.16801,147.223999Q244.76001,146.84,247.47202,146.648001Q250.18401,146.455999,252.776,145.976L252.776,143.048L252.58401,141.17600099999999L252.58401,130.7599983Q252.96802,129.9920006,253.496,129.8479996L254.216,129.8479996L255.12801,130.711998L255.22401,130.9519997L255.22401,141.17600099999999L255.51201,145.784Q258.05602,145.351999,260.60001,145.136Q263.14401,144.92000000000002,265.78400999999997,144.632Q266.50401,141.992001,267.00801,139.256001Q267.51201000000003,136.52,268.328,133.928001Q268.71200999999996,133.688,269.576,133.688Q269.81601,133.736,270.10400000000004,134.023998Q270.39201,134.312,270.48801000000003,134.599998L270.48801000000003,135.89600000000002Q269.86401,139.063999,269.14401,142.184Q268.42401,145.303999,267.12801,148.327999Q266.74402,148.568001,265.97601,148.568001Q265.64000999999996,148.52,265.328,148.208Q265.01601,147.89600000000002,265.01601,147.416L264.34401,147.416Q261.03201,147.848,255.51201,148.327999Q255.51201,155.528,255.65601,162.728001L255.51201,164.599998L258.92001,164.599998Q264.00801,163.928001,268.61600999999996,163.832001Q268.61600999999996,162.632,267.94399999999996,159.703999Q267.41602,157.928001,267.03201,156.00799899999998L267.608,155Q267.99199999999996,154.760002,268.76000999999997,154.760002Q269.09601,154.807999,269.384,155.096001Q269.67201,155.38399900000002,269.72,155.672001Q270.72801000000004,158.984001,271.18401,162.439999Q271.64000999999996,165.89600000000002,272.12001,169.304001Q271.97601,169.880001,271.25601,170.264ZM292.856,149.384001L292.08801,149.384001Q291.70401000000004,149.288,291.48801000000003,148.903999Q291.272,148.52,290.98401,148.232Q290.36001999999996,146.792,289.40001,144.872Q288.68001000000004,143.383999,288.20001,142.136Q288.53601000000003,141.464001,289.11201,141.271999L289.92801,141.271999Q290.69601,141.656,291.22401,142.327999Q291.608,143.096001,292.08801,143.816Q292.328,144.968,293.00002,146.072001Q293.67201,147.17600099999999,293.76801,148.424Q293.48001,149.191999,292.856,149.384001ZM302.36001999999996,170.599998L301.64000999999996,170.599998Q301.01601,170.45600100000001,300.632,169.304001L300.632,162.824001Q300.48801000000003,159.799999,300.48801000000003,154.760002Q294.53601000000003,162.967999,287.09601,167.528Q286.328,167.768002,285.75201000000004,168.248001Q285.17601,168.584,284.36001999999996,168.584Q284.024,168.584,283.688,168.223999Q283.35201,167.863998,283.20801,167.144001L283.688,166.136002Q286.71200999999996,164.936001,289.25601,162.824001L294.05602,158.45600100000001L298.71200999999996,152.264L297.03201,152.167999Q293.576,152.695999,290.09601,152.959999Q286.61600999999996,153.223999,283.20801,153.799999L282.15201,153.223999Q281.91200000000003,152.888,281.91200000000003,152.024Q282.00801,151.54399899999999,282.82401,151.112Q293.00002,149.816,300.72801000000004,149.384001Q300.72801000000004,144.247999,300.632,139.16Q296.744,139.16,292.856,139.688L285.8,140.6L284.79201,140.119999Q284.45601,139.639999,284.45601,138.82399900000001Q284.552,138.535999,284.88802,138.344Q285.12801,138.056,285.41602,137.959999Q289.20801,137.431999,292.95201,136.952Q296.69601,136.472,300.632,136.472Q300.72801000000004,135.032,300.72801000000004,129.3199997L301.25601,128.3120003Q301.78400999999997,128.0239983,302.45601,128.0239983Q303.272,128.2639999,303.36801,128.9360008Q303.36801,135.032,303.272,136.087999Q304.90402,136.087999,310.95203,135.223999Q314.888,134.743999,318.44,134.504002Q319.20801,134.792,319.40002,135.416L319.40002,136.184Q319.30402,136.424,318.992,136.736Q318.67999,137.048,318.44,137.096001Q314.64801,137.431999,310.90402,137.912001Q307.16,138.392,303.272,138.728001Q303.272,144.535999,303.36801,149.096001Q304.23199,149.096001,307.784,148.664L307.30402,147.608Q308.26401,145.496,309.46402,143.552Q310.664,141.608,311.57602,139.591999Q312.15201,139.112,312.728,139.112Q313.20801,139.112,313.56799,139.448Q313.92801,139.784,314.02402,140.119999L314.02402,140.792Q313.01602,142.855999,311.91202,144.82399900000001Q311.09601,146.119999,310.37601,147.464001L309.70401,148.568001L310.71201,148.664Q313.20801,148.375999,315.728,148.303999Q318.24802,148.232,320.64801,148.039999Q321.51202,148.327999,321.608,149L321.608,149.719999Q321.56,149.959999,321.17603,150.344Q320.79202,150.728001,312.92001,151.208L305.14401,151.736Q310.23199,158.119999,315.17603,161.192001Q319.06403,162.728001,321.896,164.264Q322.13602,164.84,322.13602,165.464001Q322.04001,165.799999,321.776,166.088001Q321.51202,166.375999,320.74402,166.52Q312.58401,163.736,307.496,158.55200200000002Q306.48801,157.256001,305.28802,156.200001Q304.08801,155.144001,303.224,153.703999L303.12802,159.799999Q303.272,162.824001,303.272,169.639999Q303.12802,170.504002,302.36001999999996,170.599998ZM354.39203,171.223999Q353.86401,171.127998,353.48001,170.792Q352.47202,169.976002,351.94403,168.68Q351.65601,167.959999,351.08002,167.431999L350.36002,166.71200199999998Q345.32001,159.799999,344.69601,150.535999Q344.936,135.992001,353.14401,129.1279984Q354.00803,128.4560013,354.48801,128.4560013Q355.44803,128.5999985,355.73602,129.4160004L355.73602,130.2319984L354.00803,132.200001Q353.43201,132.919998,352.73602,133.711998Q352.04001,134.504002,349.83203,137.383999Q347.28802,145.448,347.28802,151.015999Q347.48001,156.535999,350.69601,161.816002Q353.14401,166.136002,355.73602,170.216Q355.49603,170.936001,354.39203,171.223999ZM376.56802,166.903999Q375.84802,166.61600099999998,375.608,166.088001L375.56003,165.512001L376.04001,164.647999Q379.25601,163.639999,382.35202,162.416Q385.44803,161.192001,387.89603,158.792Q391.20801,155.48,392.02402,153.89600000000002L392.64801,151.688Q392.888,150.775999,392.888,149.864Q392.888,147.751999,391.92801,146.792Q390.20001,145.591999,387.46402,145.16L383.33603,145.16Q378.63202,146.216,373.78403,147.751999Q368.936,149.288,364.18402,150.535999Q363.89603,150.440001,363.608,150.152Q363.32001,149.864,363.272,149.624001L363.272,148.952L364.08801,147.944Q368.888,146.6,373.68802,145.063999Q378.48801,143.528,383.33603,142.664L387.75201,142.664Q392.07202,143.24,394.23203,145.639999Q395.48001,147.368,395.48001,150.440001Q395.48001,152.984001,393.94403,155.672001Q391.06403,160.231998,386.26401,163.400002Q381.80002,165.799999,376.56802,166.903999ZM425.81601,140.407999Q427.30402,140.167999,427.95203,139.639999Q428.60004,139.112,429.32004,138.68Q430.04004,138.247999,430.23203,137.383999Q430.85602,136.375999,430.85602,134.695999Q430.52002,133.784,430.04004,132.967999Q428.16803,130.6640015,426.48804,130.6640015Q424.95203,130.6640015,422.79202,132.007999Q422.36002,132.728001,421.90402,133.472Q421.44803,134.216,421.44803,135.128Q421.64001,136.279999,422.19202,137.264Q422.74402,138.247999,423.32004,139.256001L424.18402,139.784L424.52002,140.407999L425.81601,140.407999ZM424.85602,143.048L424.37604,143.048Q422.88803,142.808001,422.21603,142.136L421.92801,141.464001L420.82404,140.6Q420.20001,139.208,419.48001,137.816Q418.76001,136.424,418.76001,134.888Q418.76001,132.632,420.92001,130.1360016Q423.41602,127.9759979,426.87201,127.9759979Q428.50403,127.9759979,429.80002,128.9360008Q433.54404,131.8639984,433.54404,135.511999Q433.54404,137,432.72803,138.584Q432.05603,139.927999,430.95203,140.888Q428.55203,143.048,424.85602,143.048ZM482.21603,162.728001L488.07202,162.296001Q493.64001,162.296001,495.27203,162.391998L495.27203,159.080002L495.60803,156.919998L495.60803,149.624001Q495.99203,141.223999,496.37604,137.288Q489.41602,137.288,486.39203,137.383999Q483.75201,148.375999,481.64001,162.728001L482.21603,162.728001ZM503.52802,172.52L502.52002,171.99200100000002Q501.84802,170.45600100000001,501.53604,168.751999Q501.22403,167.048,500.55203,165.368L500.02402,165.175999L495.17603,165.175999Q493.64001,165.032001,488.07202,165.032001Q485.86401,165.175999,483.68002,165.223999Q481.49603,165.271999,479.38403,165.848L478.80804,165.751999Q477.94403,165.94400000000002,477.08002,165.94400000000002Q476.21603,165.94400000000002,475.35202,166.040001Q474.68002,167.240002,474.29602,168.632Q473.91202,170.023998,473.19202,171.223999Q472.76004,171.512001,471.94403,171.512001Q471.36804,171.271999,471.08002,170.599998L471.08002,169.639999Q471.60803,168.05599999999998,472.13602,166.52Q472.66403,164.984001,473.72003,163.591999Q474.87204,163.208,476.16803,163.208L477.17603,163.256001Q477.94403,163.256001,478.66403,163.208Q480.00803,156.776001,480.96802,150.271999Q481.92804,143.768,483.70404,137.383999L481.25604,137.383999L480.24802,137.576L479.19202,137Q478.95203,136.279999,478.95203,135.848Q479.19202,134.984001,479.88803,134.888Q480.58405,134.792,481.25604,134.695999Q489.80002,134.695999,498.34402,134.599998Q498.63202,134.408001,499.92804,134.408001Q500.60004,134.647999,500.84003,135.32L500.84003,136.087999Q500.60004,136.855999,499.11203,137.191999Q498.24805,145.832001,498.24805,156.919998Q498.00803,158.45600100000001,497.96002,162.535999L499.20804,162.487999Q501.60803,162.487999,503.28802,163.495998Q503.52802,163.928001,503.52802,164.792L503.38403,165.032001Q504.53604,169.639999,504.92004,171.512001Q504.68002,172.279999,503.52802,172.52ZM535.40002,140.407999Q536.8880300000001,140.167999,537.53604,139.639999Q538.1840500000001,139.112,538.90405,138.68Q539.62402,138.247999,539.8160399999999,137.383999Q540.44003,136.375999,540.44003,134.695999Q540.10403,133.784,539.62402,132.967999Q537.7520400000001,130.6640015,536.07205,130.6640015Q534.53604,130.6640015,532.37604,132.007999Q531.94403,132.728001,531.48804,133.472Q531.03204,134.216,531.03204,135.128Q531.2240300000001,136.279999,531.77603,137.264Q532.32803,138.247999,532.90405,139.256001L533.7680399999999,139.784L534.10403,140.407999L535.40002,140.407999ZM534.44003,143.048L533.96005,143.048Q532.4720500000001,142.808001,531.80005,142.136L531.51202,141.464001L530.40805,140.6Q529.78403,139.208,529.06403,137.816Q528.34402,136.424,528.34402,134.888Q528.34402,132.632,530.5040300000001,130.1360016Q533.0000299999999,127.9759979,536.4560200000001,127.9759979Q538.08804,127.9759979,539.3840299999999,128.9360008Q543.12805,131.8639984,543.12805,135.511999Q543.12805,137,542.31204,138.584Q541.64005,139.927999,540.53604,140.888Q538.1360500000001,143.048,534.44003,143.048ZM582.00806,144.056L580.71204,143.288Q579.94403,142.472,579.89606,141.416Q579.89606,140.167999,581.09607,139.112Q581.43207,138.728001,582.77606,138.728001Q584.12006,139.4,584.50403,140.695999L584.50403,142.327999Q583.78406,143.912001,582.00806,144.056ZM580.23206,168.05599999999998L579.22406,167.528L578.84003,166.61600099999998L579.36804,165.560001L581.00006,164.647999Q581.38403,163.832001,581.91205,163.040001Q582.44006,162.248001,582.63202,161.33599900000002Q581.33606,161.33599900000002,580.37604,160.183998Q579.75208,159.560001,579.75208,158.55200200000002Q579.84802,158.071999,580.08807,157.688Q581.14404,156.152,582.82404,156.152Q584.02405,156.152,584.93604,157.591999Q585.46405,159.464001,585.46405,161L585.41602,161.863998Q584.40802,165.032001,582.34406,167.048Q581.81604,167.33599900000002,581.38403,167.647999Q580.95203,167.959999,580.23206,168.05599999999998ZM591.51208,171.223999L590.50409,170.695999L590.16809,169.736L590.79205,168.68Q592.23206,167.096001,593.33606,165.32Q594.44006,163.54399899999999,595.64008,161.863998Q596.74408,159.799999,597.34406,157.52Q597.94409,155.239998,598.52008,152.984001L598.52008,148.232Q597.80005,143.768,596.33606,139.448Q594.87207,135.128,591.41608,132.007999L590.07208,130.5200005L589.97607,129.8479996L590.50409,128.8400002Q590.98407,128.5519981,591.75208,128.5519981Q596.31207,133.112,598.18408,136.567999Q599.38409,139.351999,600.00806,142.280001Q600.63208,145.208,601.20807,148.232L601.20807,153.175999Q600.1521,161.431999,593.1441,170.312L592.32806,170.888Q592.0401,171.223999,591.51208,171.223999ZM625.73602,166.903999Q625.01605,166.61600099999998,624.77606,166.088001L624.72803,165.512001L625.20807,164.647999Q628.42407,163.639999,631.52002,162.416Q634.61603,161.192001,637.06403,158.792Q640.37604,155.48,641.19202,153.89600000000002L641.81604,151.688Q642.05603,150.775999,642.05603,149.864Q642.05603,147.751999,641.09607,146.792Q639.36804,145.591999,636.63202,145.16L632.50403,145.16Q627.80005,146.216,622.95203,147.751999Q618.10406,149.288,613.35205,150.535999Q613.06403,150.440001,612.77606,150.152Q612.48804,149.864,612.44006,149.624001L612.44006,148.952L613.25604,147.944Q618.05603,146.6,622.85602,145.063999Q627.65607,143.528,632.50403,142.664L636.92004,142.664Q641.24005,143.24,643.40002,145.639999Q644.64807,147.368,644.64807,150.440001Q644.64807,152.984001,643.11206,155.672001Q640.23206,160.231998,635.43207,163.400002Q630.96802,165.799999,625.73602,166.903999Z" fill="#4C4C4C" fill-opacity="1"/></g></g></svg>