<svg xmlns="http://www.w3.org/2000/svg" xmlns:xlink="http://www.w3.org/1999/xlink" fill="none" version="1.1" width="700" height="300" viewBox="0 0 700 300"><defs><clipPath id="master_svg0_24_08"><rect x="0" y="0" width="700" height="300" rx="0"/></clipPath><filter id="master_svg1_24_12" filterUnits="objectBoundingBox" color-interpolation-filters="sRGB" x="-0.0423728813559322" y="-0.2807017543859649" width="1.0847457627118644" height="1.7017543859649122"><feFlood flood-opacity="0" result="BackgroundImageFix"/><feColorMatrix in="SourceAlpha" type="matrix" values="0 0 0 0 0 0 0 0 0 0 0 0 0 0 0 0 0 0 127 0"/><feOffset dy="4" dx="0"/><feGaussianBlur stdDeviation="5"/><feColorMatrix type="matrix" values="0 0 0 0 0 0 0 0 0 0 0 0 0 0 0 0 0 0 0.30000001192092896 0"/><feBlend mode="normal" in2="BackgroundImageFix" result="effect1_dropShadow"/><feBlend mode="normal" in="SourceGraphic" in2="effect1_dropShadow" result="shape"/></filter></defs><g clip-path="url(#master_svg0_24_08)"><rect x="0" y="0" width="700" height="300" rx="0" fill="#FFFFFF" fill-opacity="1"/><g filter="url(#master_svg1_24_12)"><path d="M123.0240002,166.807999L119.9040003,166.71200199999998L118.848,166.807999Q118.8000002,166.759998,118.6799998,166.71200199999998Q118.5599999,166.66400099999998,118.3200002,166.424Q118.0799999,166.183998,117.9360001,165.89600000000002L117.9360001,164.023998L118.1280003,163.736L118.0320001,162.68Q118.368,160.136002,118.4640002,157.44799799999998Q118.5599999,154.760002,118.7519999,152.216L118.7519999,145.544001L118.4640002,141.17600099999999Q118.5599999,136.136,118.6799998,134.84Q118.8000002,133.54399899999999,120.5279999,133.54399899999999Q121.152,133.54399899999999,121.4400001,134.45600100000001Q121.4400001,135.368,121.2480001,136.136Q121.2480001,141.07999999999998,121.152,142.52L121.4400001,145.544001L121.4400001,152.216Q121.2480001,155.144001,121.1280003,158.144001Q121.0079999,161.144001,120.6719999,164.023998Q121.4879999,164.023998,123.7919998,163.736Q124.512,163.784,126.384,163.784Q129.168,163.784,130.464001,163.832001L133.344,163.736L138.48,163.832001L140.592001,163.736Q141.072001,163.880001,141.552,164.695999L141.552,165.416Q141.408001,165.99200100000002,140.639999,166.375999Q135.936001,166.71200199999998,131.328001,166.71200199999998L127.104,166.66400099999998Q124.416,166.66400099999998,123.0240002,166.807999ZM162.288002,163.928001Q163.823997,163.784,164.639999,163.495998Q170.832001,161.528,174.096001,154.568001Q175.008003,152.936001,175.008003,149.384001Q175.008003,143.288,169.536003,137.383999Q168.33599900000002,136.712,166.968002,136.544001Q165.599998,136.375999,164.208,136.232Q163.152,136.327999,161.52,136.327999Q161.087997,136.087999,160.464001,136.087999L158.832001,136.136Q157.248001,136.472,155.736,137.024Q154.223999,137.576,153.119999,139.063999Q150.528,141.511999,149.279999,144.799999Q148.032001,148.087999,148.032001,151.208Q148.703999,153.559999,149.688,155.816002Q150.672001,158.071999,152.352001,159.848Q154.512001,161.911999,157.200001,162.919998Q159.888,163.928001,162.288002,163.928001ZM162.239998,166.66400099999998Q155.375999,166.66400099999998,149.760002,161.048Q145.488001,155.048,145.488001,150.247999Q145.488001,141.992001,152.832001,135.511999Q156.096001,133.352001,160.368,133.352001Q161.136002,133.352001,163.968002,133.639999L165.120003,133.54399899999999Q166.99200100000002,133.784,168.912003,134.192001Q170.832001,134.599998,172.223999,136.327999Q177.647999,141.608,177.647999,150.007999Q177.647999,156.439999,172.127998,162.05599999999998Q166.99200100000002,166.66400099999998,162.239998,166.66400099999998ZM203.66400099999998,151.54399899999999L203.760002,151.448Q202.464005,148.184,200.832001,145.112Q199.199997,142.039999,197.903999,138.775999Q196.464005,142.039999,194.783997,145.063999Q193.104004,148.087999,191.66400099999998,151.208L199.68,151.352001Q200.592003,151.54399899999999,203.66400099999998,151.54399899999999ZM183.360001,166.807999L182.975998,166.807999L182.783997,166.66400099999998Q182.16000400000001,166.375999,181.968002,165.416Q186.288002,156.152,190.008003,148.712Q193.72799700000002,141.271999,197.04000100000002,133.688Q197.520004,133.400002,198.239998,133.400002Q199.05599999999998,133.784,199.199997,134.360001Q202.32,141.751999,205.655998,149.216Q208.992004,156.68,212.496002,165.560001Q212.35200500000002,166.183998,211.536003,166.52L210.767998,166.52Q210.33599900000002,166.375999,209.856003,165.655998Q209.760002,165.512001,204.767998,154.088001L199.968002,154.183998L199.391998,153.992001L191.66400099999998,153.992001L190.655998,154.183998L184.223999,166.52Q183.935997,166.71200199999998,183.720001,166.736Q183.503998,166.759998,183.360001,166.807999ZM224.88,164.119999Q226.704,163.832001,230.01601,163.832001L231.216,163.928001Q233.18401,163.928001,234.98401,163.352001Q236.784,162.776001,238.416,161.959999Q240.048,161.144001,240.816,159.751999Q241.58401,158.360001,242.25601,157.015999Q242.784,155.33599900000002,243.336,153.68Q243.888,152.024,244.12801,150.392L244.17601,146.119999Q243.60001,144.10399999999998,242.304,142.256001Q241.00799999999998,140.407999,239.71201000000002,138.68Q237.07201,137.048,234.12,136.567999Q231.16800999999998,136.087999,228.192,136.039999L222.09601,136.472Q222.09601,137.048,221.832,137.576Q221.56801000000002,138.10399999999998,221.56801000000002,138.584Q221.56801000000002,144.535999,221.424,148.615999L221.47201,153.703999L221.08801,164.023998L224.88,164.119999ZM224.54401000000001,166.807999L223.15201000000002,166.807999Q222.24000999999998,166.568001,221.424,166.568001Q220.99200000000002,166.568001,220.608,166.61600099999998Q220.22401000000002,166.66400099999998,219.88801,166.66400099999998Q219.26400999999998,166.66400099999998,218.856,166.375999Q218.44801,166.088001,218.44801,164.84Q218.73601,158.84,218.832,148.712L218.73601,146.552L218.928,144.535999Q218.928,138.584,219.12,136.567999L218.832,134.792L218.97601,134.599998Q219.36,134.023998,219.744,133.880001Q220.8,133.880001,221.47201,133.975998L222.672,133.784L224.59199999999998,133.784Q226.89600000000002,133.304001,230.44801,133.304001Q234.86401,133.975998,236.784,134.45600100000001Q240,135.128,242.40001,137.576Q243.696,139.639999,245.136,141.632Q246.576,143.624001,246.86401,146.119999L246.81601,150.392Q245.76001,157.784,241.92001,162.776001Q237.312,166.61600099999998,230.11201,166.61600099999998L226.94401,166.52Q225.40800000000002,166.759998,225.144,166.759998Q224.88,166.759998,224.54401000000001,166.807999ZM259.87201,166.759998Q257.42401,166.52,255.024,166.495998Q252.62401,166.472,251.328,165.99200100000002L250.89601,165.080002L251.47202,164.023998Q251.90401,163.736,252.72002,163.736Q252.81601,163.784,253.82401,163.784L256.75201000000004,163.832001Q256.75201000000004,158.360001,256.65601000000004,155.528L256.84801,153.07999999999998Q256.84801,140.360001,256.75201000000004,136.039999L253.968,135.944Q253.29601,136.232,252.72002,136.232Q251.95201,135.89600000000002,251.76001,135.271999L251.76001,134.551998L252.72002,133.447998L253.39201,133.208L261.552,133.352001Q262.12801,133.495998,262.75201000000004,133.495998L263.76000999999997,133.447998Q264.576,133.447998,265.20001,133.880001Q265.48801000000003,134.216,265.48801000000003,135.08Q265.39201,135.368,265.10400000000004,135.608Q264.86401,135.944,264.576,136.039999L261.64801,136.136L259.48801000000003,136.039999Q259.48801000000003,144.584,259.58401000000003,153.07999999999998L259.39201,158.264Q259.48801000000003,163.495998,259.58401000000003,163.928001L262.08002,164.023998L264.14401,163.928001Q264.43201,164.023998,264.72,164.33599900000002Q265.00801,164.647999,265.05602,164.888L265.05602,165.560001Q264.96001,166.231998,264.14401,166.52L259.87201,166.759998ZM273.45601,166.952L272.40001,166.375999Q272.15999999999997,165.99200100000002,272.15999999999997,165.127998Q272.20801,160.807999,272.20801,152.792L272.01601,151.639999L272.01601,144.728001Q271.58401000000003,136.327999,271.39201,134.743999L272.40001,133.639999Q272.83202,133.54399899999999,273.16801,133.54399899999999Q273.98401,133.54399899999999,274.41602,134.023998L274.8,134.599998Q275.47202,134.599998,276.384,135.751999Q283.00801,142.952,295.39201,159.127998Q295.39201,148.424,295.48801000000003,145.303999Q295.48801000000003,135.799999,295.44,134.743999Q295.44,133.832001,296.35201,133.400002L297.216,133.304001Q298.03201,133.54399899999999,298.22401,133.832001Q298.41602,134.119999,298.41602,134.792L298.22401,139.256001L298.22401,145.303999Q298.03201,153.223999,298.03201,155.239998Q298.03201,162.68,298.32001,165.560001Q298.08002,166.327999,296.92801,166.568001L296.20801,166.231998Q295.58401000000003,165.368,295.48801000000003,165.080002Q290.59200999999996,156.68,285.26401,150.296Q279.93600000000004,143.912001,274.56001000000003,137.671999L274.464,139.063999L274.70401000000004,144.728001L274.70401000000004,151.639999L274.89601,152.792L274.89601,165.89600000000002Q274.84801,166.183998,274.58401000000003,166.400002Q274.32001,166.61600099999998,274.17601,166.688Q274.03201,166.759998,273.98401,166.807999L273.45601,166.952ZM320.78400999999997,166.71200199999998Q313.77602,166.71200199999998,310.51201000000003,163.44799799999998Q304.464,157.063999,304.464,151.208L304.41602,149.191999Q304.41602,145.256001,305.47202,142.712Q306.67201,139.736,309.216,137.48Q311.328,135.032,314.40001,134.408001Q317.47202,133.784,320.40001,133.54399899999999L324.14401,133.54399899999999Q325.72801000000004,133.975998,327.048,134.239998Q328.36801,134.504002,330.09601,135.704Q332.97601,138.056,333.07201,142.280001Q332.44801,142.952,332.15999999999997,143Q331.87201,143.048,331.53601000000003,143.048Q330.91202,142.952,330.62401,142.136Q329.56800999999996,138.632,327.98401,137.383999Q326.44801,136.808001,323.90400999999997,136.232L320.40001,136.232Q317.61600999999996,136.375999,314.90400999999997,137.072001Q312.19202,137.768,310.41602,140.072001Q308.25601,142.136,307.632,144.872Q307.10400000000004,147.07999999999998,307.10400000000004,150.344L307.15201,151.927999Q307.77602,156.68,312.96001,162.152Q316.32001,164.023998,320.97601,164.023998Q325.15201,164.023998,329.08801,159.99200100000002Q329.95201,157.928001,329.95201,156.10399999999998Q329.95201,155.672001,329.856,155.239998L326.688,155.239998L322.03201,155.576L320.97601,155.144001Q320.44801,154.61600099999998,320.44801,153.89600000000002Q320.44801,153.512001,320.88,153.07999999999998Q321.16801,152.792,321.408,152.743999L322.17601,152.743999L322.41602,152.888L326.688,152.552L331.776,152.552Q332.01601,152.599998,332.328,152.888Q332.64000999999996,153.175999,332.73600999999996,153.464001Q332.496,157.639999,332.15999999999997,159.655998Q331.87201,161.911999,329.13602000000003,163.54399899999999Q325.58401000000003,166.71200199999998,320.78400999999997,166.71200199999998ZM341.95201,166.807999L340.56001000000003,166.136002L339.93602,165.175999Q339.55201999999997,164.792,339.55201999999997,164.167999Q339.64801,163.400002,339.98402,162.824001Q340.32002,162.248001,340.82402,161.792Q341.32802000000004,161.33599900000002,341.90402,161.288002Q342.48001,161.239998,343.10402,161.239998Q343.68002,161.576,344.23201,161.911999Q344.78400999999997,162.248001,345.02402,162.919998L345.12001,164.360001L344.25601,165.94400000000002L344.11201,166.040001Q343.24802,166.807999,341.95201,166.807999ZM357.12001,166.807999L355.72801000000004,166.136002L355.10402,165.175999Q354.72002,164.792,354.72002,164.167999Q354.81601,163.400002,355.15202,162.824001Q355.48802,162.248001,355.99202,161.792Q356.49602,161.33599900000002,357.07202,161.288002Q357.64801,161.239998,358.27202,161.239998Q358.84802,161.576,359.40001,161.911999Q359.95201,162.248001,360.19202,162.919998L360.28801,164.360001L359.42401,165.94400000000002L359.28001,166.040001Q358.41602,166.807999,357.12001,166.807999ZM372.28802,166.807999L370.89603,166.136002L370.272,165.175999Q369.88802,164.792,369.88802,164.167999Q369.98401,163.400002,370.32001,162.824001Q370.65601,162.248001,371.16,161.792Q371.664,161.33599900000002,372.24002,161.288002Q372.81601,161.239998,373.44,161.239998Q374.01602,161.576,374.56802,161.911999Q375.12003,162.248001,375.36002,162.919998L375.45602,164.360001L374.59201,165.94400000000002L374.44803,166.040001Q373.58401,166.807999,372.28802,166.807999ZM409.10403,171.223999Q408.57602,171.127998,408.19202,170.792Q407.18402,169.976002,406.65604,168.68Q406.36801,167.959999,405.79202,167.431999L405.07202,166.71200199999998Q400.03201,159.799999,399.40802,150.535999Q399.64801,135.992001,407.85602,129.1279984Q408.72003,128.4560013,409.20001,128.4560013Q410.16003,128.5999985,410.44803,129.4160004L410.44803,130.2319984L408.72003,132.200001Q408.14401,132.919998,407.44803,133.711998Q406.75201,134.504002,404.54404,137.383999Q402.00003,145.448,402.00003,151.015999Q402.19202,156.535999,405.40802,161.816002Q407.85602,166.136002,410.44803,170.216Q410.20804,170.936001,409.10403,171.223999ZM429.31201,133.928001L429.74402,133.256001Q430.22403,132.10399999999998,430.22403,131.4799995Q430.22403,131.144001,429.84003,129.6559982Q429.60004,128.8880005,429.26401,128.6959991L429.21603,128.7439995Q428.59201,128.7439995,428.59201,132.248001Q428.73602,132.68,428.85602,133.136002Q428.97601,133.591999,429.26401,133.880001Q429.26401,133.928001,429.31201,133.928001ZM428.68802,137L428.49603,137Q427.72803,136.615999,427.27203,135.968Q426.81601,135.32,426.28802,134.504002Q425.95203,133.688,425.95203,132.728001L425.90402,130.2799988Q425.90402,129.4160004,426.04803,128.7439995Q426.96002,126.2960014,428.30402,126.1520004Q429.16803,126.0559998,430.12802,126.0559998Q433.00803,127.4000015,433.00803,131.2879982Q433.00803,133.447998,432.14401,134.792Q430.992,137,428.68802,137ZM468.38403,163.832001L472.89603,163.400002L476.64001,163.400002Q476.64001,161.288002,476.73602,159.175999Q476.73602,154.040001,476.83203,148.855999L476.73602,147.32L476.83203,147.032L474.33603,147.032Q472.56003,151.112,471.33603,155.431999Q470.11203,159.751999,468.38403,163.832001ZM460.41602,171.608002L459.40802,171.032001Q459.12003,170.45600100000001,459.12003,169.832001Q460.89603,166.088001,462.52802,164.360001Q463.34402,163.976002,465.36002,163.832001Q467.18402,159.799999,468.45602,155.576Q469.72803,151.352001,471.02402,147.223999Q470.06403,147.223999,469.20004,147.17600099999999Q468.33603,147.128,467.66403,146.552Q467.42404,146.119999,467.42404,145.351999Q467.61603,144.584,468.33603,144.392Q469.24802,144.392,472.17603,144.584Q474.57602,144.296,477.02402,144.271999Q479.47202,144.247999,481.87204,144.152Q482.11203,144.199999,482.42404,144.511999Q482.73602,144.82399900000001,482.83203,145.063999L482.83203,145.927999Q482.73602,146.167999,482.42404,146.455999Q482.11203,146.743999,481.87204,146.792L479.52002,146.792L479.42404,148.76L479.52002,154.52Q479.42404,157.928001,479.42404,161.38399900000002L479.32803,163.400002L479.71204,163.400002Q480.19202,163.208,482.06403,163.208Q482.83203,163.639999,483.02402,164.264Q483.02402,165.799999,483.79202,167.240002Q484.56003,168.68,484.75201,170.312L484.17603,171.127998Q483.74402,171.416,482.97601,171.416L482.06403,170.695999Q481.87204,169.400002,481.32004,168.271999Q480.76804,167.144001,480.48004,165.94400000000002L479.90402,166.136002L472.89603,166.136002Q470.49603,166.61600099999998,468.48004,166.61600099999998L464.01602,166.61600099999998Q463.34402,167.720001,462.72003,168.919998Q462.09604,170.119999,461.32803,171.223999L460.41602,171.608002ZM501.31204,133.928001L501.74402,133.256001Q502.22403,132.10399999999998,502.22403,131.4799995Q502.22403,131.144001,501.84003,129.6559982Q501.60004,128.8880005,501.26404,128.6959991L501.21603,128.7439995Q500.59204,128.7439995,500.59204,132.248001Q500.73602,132.68,500.85602,133.136002Q500.97601,133.591999,501.26404,133.880001Q501.26404,133.928001,501.31204,133.928001ZM500.68802,137L500.49603,137Q499.72803,136.615999,499.27203,135.968Q498.81604,135.32,498.28802,134.504002Q497.95203,133.688,497.95203,132.728001L497.90402,130.2799988Q497.90402,129.4160004,498.04803,128.7439995Q498.96002,126.2960014,500.30402,126.1520004Q501.16803,126.0559998,502.12802,126.0559998Q505.00803,127.4000015,505.00803,131.2879982Q505.00803,133.447998,504.14404,134.792Q502.99203,137,500.68802,137ZM523.87204,171.223999L522.8640399999999,170.695999L522.52802,169.736L523.1520399999999,168.68Q524.59204,167.096001,525.69601,165.32Q526.80002,163.54399899999999,528.0000299999999,161.863998Q529.10403,159.799999,529.7040400000001,157.52Q530.30402,155.239998,530.88004,152.984001L530.88004,148.232Q530.16003,143.768,528.69601,139.448Q527.23203,135.128,523.77603,132.007999L522.4320399999999,130.5200005L522.3360299999999,129.8479996L522.8640399999999,128.8400002Q523.34402,128.5519981,524.11203,128.5519981Q528.67203,133.112,530.54404,136.567999Q531.74402,139.351999,532.3680400000001,142.280001Q532.99203,145.208,533.5680199999999,148.232L533.5680199999999,153.175999Q532.51202,161.431999,525.5040300000001,170.312L524.68802,170.888Q524.40002,171.223999,523.87204,171.223999ZM557.32803,166.807999Q556.3680400000001,166.472,556.3680400000001,165.271999L556.84802,164.264Q560.83203,163.063999,564.72003,161.528Q568.60803,159.99200100000002,571.68002,157.015999Q575.4720500000001,153.368,576.86401,150.775999Q577.96802,147.608,577.96802,145.591999Q577.96802,144.92000000000002,577.5840499999999,143.191999Q577.39203,142.280001,576.67203,141.704Q574.56003,139.976,570.96002,139.544001L565.87204,139.544001Q559.87204,140.84,553.84802,142.76Q547.82404,144.68,541.87204,146.216Q541.24802,146.119999,540.96002,145.303999L540.96002,144.535999L541.87204,143.431999Q547.87204,141.799999,553.82404,139.855999Q559.77603,137.912001,565.87204,136.808001L571.34402,136.808001Q573.60004,137.143999,575.66403,137.912001Q577.72803,138.68,579.21603,140.455999Q580.7520099999999,142.615999,580.7520099999999,146.360001Q580.60803,149.576,578.78403,152.792Q577.29602,155.192001,575.23203,157.400002Q572.78403,159.89600000000002,569.28003,162.391998Q564.62402,164.888,557.32803,166.807999Z" fill="#4C4C4C" fill-opacity="1"/></g></g></svg>